<svg width="48" height="48" viewBox="0 0 48 48" fill="none" xmlns="http://www.w3.org/2000/svg">
<path d="M24 0C37.2548 0 48 10.7452 48 24C48 37.2548 37.2548 48 24 48C10.7452 48 0 37.2548 0 24C0 10.7452 10.7452 0 24 0ZM30.9883 19.7588C29.274 19.7589 27.8818 20.2947 26.8057 21.3594C25.7326 22.427 25.1953 23.9609 25.1953 25.9609C25.1953 28.093 25.7881 29.6342 26.9814 30.5801C28.169 31.5275 29.5437 32 31.1016 32C32.9875 32 34.4553 31.4385 35.5029 30.3174C36.174 29.6107 36.5529 28.9144 36.6357 28.2314H33.5127C33.3321 28.5699 33.1211 28.8339 32.8818 29.0254C32.4468 29.3773 31.8794 29.5547 31.1855 29.5547C30.5264 29.5547 29.9646 29.4087 29.498 29.1191C28.7276 28.6543 28.3246 27.8421 28.2734 26.6855H36.7969C36.8104 25.6893 36.7771 24.9232 36.6943 24.3945C36.5528 23.4902 36.2429 22.6938 35.7598 22.0078C35.23 21.2299 34.5573 20.6601 33.7402 20.3008C32.9244 19.9399 32.0073 19.7588 30.9883 19.7588ZM11.2002 31.6064H18.3281C19.1318 31.6064 19.8757 31.5385 20.5635 31.3975C21.2513 31.2549 21.8464 30.9949 22.3506 30.6133C22.7991 30.2807 23.1717 29.8703 23.4697 29.3848C23.9408 28.6513 24.1758 27.8215 24.1758 26.8965C24.1758 25.9996 23.97 25.236 23.5605 24.6094C23.1466 23.9813 22.5382 23.5225 21.7314 23.2314C22.2626 22.9642 22.6645 22.6673 22.9385 22.3438C23.4277 21.7646 23.6699 20.9968 23.6699 20.0449C23.6699 19.1199 23.4284 18.3268 22.9453 17.6631C22.14 16.5821 20.7744 16.0282 18.8447 16H11.2002V31.6064ZM27.5586 18.6699H34.3379V16.7275H27.5586V18.6699Z" fill="white"/>
<path d="M18.2488 24.7354C18.9261 24.7413 19.4545 24.8307 19.8308 25C20.5035 25.3044 20.8376 25.8613 20.8376 26.6748C20.8376 27.634 20.4914 28.2815 19.7976 28.623C19.4168 28.8057 18.8805 28.8984 18.1941 28.8984H14.3533V24.7354H18.2488ZM30.99 22.248C31.7124 22.248 32.3158 22.455 32.8064 22.8691C33.2911 23.2864 33.5652 23.8925 33.6208 24.6943H28.3484C28.4597 23.9432 28.7321 23.3477 29.1638 22.9082C29.5958 22.4687 30.2073 22.248 30.99 22.248ZM17.7966 18.71C18.5535 18.71 19.1771 18.7914 19.6677 18.9531C20.2336 19.1877 20.5172 19.6676 20.5173 20.3965C20.5173 21.0498 20.3012 21.5072 19.8738 21.7656C19.4434 22.0239 18.8855 22.1533 18.2009 22.1533H14.3533V18.71H17.7966Z" fill="white"/>
</svg>
