<svg width="70" height="70" viewBox="0 0 70 70" fill="none" xmlns="http://www.w3.org/2000/svg">
<rect x="2" y="2" width="66" height="66" rx="9" stroke="#9A7FA2" stroke-width="4"/>
<path fill-rule="evenodd" clip-rule="evenodd" d="M27.1571 29.7765C23.4365 29.7765 20.4204 32.7547 20.4204 36.4286C20.4204 40.1024 23.4365 43.0807 27.1571 43.0807H34.0758V36.4286V29.7765H27.1571ZM44.0898 26.5403L44.2719 26.5403C47.9925 26.5403 51.0086 23.5621 51.0086 19.8882C51.0086 16.2144 47.9925 13.2362 44.2719 13.2362H37.3532V26.5403L44.0898 26.5403ZM49.7634 28.1584C52.4874 26.3912 54.2859 23.3471 54.2859 19.8882C54.2859 14.4271 49.8025 10 44.2719 10H37.3532H35.7145H34.0758H27.1571C21.6265 10 17.1431 14.4271 17.1431 19.8882C17.1431 23.3471 18.9416 26.3912 21.6656 28.1584C18.9416 29.9256 17.1431 32.9697 17.1431 36.4286C17.1431 39.8875 18.9416 42.9315 21.6656 44.6987C18.9416 46.4659 17.1431 49.51 17.1431 52.9689C17.1431 58.4414 21.6833 62.8571 27.2023 62.8571C32.7717 62.8571 37.3532 58.4011 37.3532 52.879V46.3168V44.6987V43.7449C39.1319 45.3428 41.4957 46.3168 44.0898 46.3168H44.2719C49.8025 46.3168 54.2859 41.8897 54.2859 36.4286C54.2859 32.9697 52.4874 29.9256 49.7634 28.1584ZM44.2719 29.7765H44.0898C40.3693 29.7765 37.3532 32.7547 37.3532 36.4286C37.3532 40.1024 40.3693 43.0807 44.0898 43.0807H44.2719C47.9925 43.0807 51.0086 40.1024 51.0086 36.4286C51.0086 32.7547 47.9925 29.7765 44.2719 29.7765ZM20.4204 52.9689C20.4204 49.2951 23.4365 46.3168 27.1571 46.3168H34.0758V52.879C34.0758 56.5912 30.9847 59.621 27.2023 59.621C23.4703 59.621 20.4204 56.6314 20.4204 52.9689ZM34.0758 26.5403H27.1571C23.4365 26.5403 20.4204 23.5621 20.4204 19.8882C20.4204 16.2144 23.4365 13.2362 27.1571 13.2362H34.0758V26.5403Z" fill="#9A7FA2"/>
</svg>
