<svg width="65" height="65" viewBox="0 0 65 65" fill="none" xmlns="http://www.w3.org/2000/svg">
<path d="M43.9549 23.8235C42.5697 23.8262 41.4435 22.7046 41.4408 21.3194C41.438 19.9342 42.5596 18.8079 43.9454 18.8052C45.3313 18.8025 46.4576 19.9247 46.4603 21.3099C46.4623 22.6951 45.3407 23.8207 43.9549 23.8235Z" fill="white"/>
<path fill-rule="evenodd" clip-rule="evenodd" d="M32.8282 43.2384C26.8979 43.2499 22.0803 38.4519 22.0688 32.5201C22.0572 26.5898 26.8565 21.7714 32.7869 21.7599C38.7185 21.7484 43.5368 26.5491 43.5483 32.4788C43.5598 38.4106 38.7592 43.2269 32.8282 43.2384ZM32.7943 25.5285C28.9451 25.5353 25.8292 28.6628 25.8359 32.5127C25.8434 36.3633 28.9715 39.4786 32.8207 39.4712C36.6713 39.4637 39.7872 36.3369 39.7798 32.4863C39.7723 28.6357 36.6442 25.521 32.7943 25.5285Z" fill="white"/>
<path fill-rule="evenodd" clip-rule="evenodd" d="M19.0721 12.7108C20.4003 12.1903 21.9203 11.8339 24.1458 11.7288C26.3767 11.6218 27.089 11.5974 32.7679 11.5865C38.4481 11.5757 39.1604 11.5974 41.3913 11.6963C43.6174 11.7925 45.1382 12.1436 46.4691 12.6586C47.8461 13.1892 49.0144 13.9035 50.1787 15.063C51.3429 16.2239 52.0599 17.3882 52.5973 18.7632C53.1171 20.0928 53.4735 21.6115 53.5793 23.8384C53.685 26.0686 53.7107 26.7802 53.7216 32.4598C53.7324 38.1388 53.7093 38.8517 53.6118 41.084C53.5149 43.3089 53.1645 44.8303 52.6495 46.1606C52.1175 47.5376 51.4046 48.7059 50.2451 49.8702C49.0856 51.0351 47.92 51.7515 46.545 52.2895C45.2154 52.8086 43.6967 53.1651 41.4713 53.2715C39.2404 53.3772 38.5281 53.4023 32.8472 53.4131C27.1689 53.424 26.4567 53.4023 24.2258 53.304C21.9996 53.2064 20.4782 52.8561 19.1479 52.3417C17.7709 51.8091 16.6026 51.0968 15.4384 49.9366C14.2734 48.7764 13.5558 47.6115 13.0191 46.2365C12.4986 44.9075 12.1435 43.3882 12.0371 41.1633C11.9307 38.9317 11.9057 38.2188 11.8948 32.5398C11.884 26.8601 11.9063 26.1486 12.0039 23.9176C12.1022 21.6908 12.4512 20.17 12.9662 18.8384C13.4982 17.462 14.2111 16.2944 15.372 15.1294C16.5315 13.9652 17.6971 13.2468 19.0721 12.7108ZM20.5054 48.8279C21.2433 49.1119 22.3507 49.4507 24.3898 49.5395C26.5963 49.635 27.257 49.656 32.8404 49.6452C38.4258 49.635 39.0865 49.6113 41.2923 49.5076C43.3294 49.4107 44.4367 49.0678 45.1727 48.7805C46.1492 48.3989 46.8445 47.9429 47.575 47.2116C48.3056 46.4777 48.7576 45.7804 49.1357 44.8038C49.4203 44.0652 49.7585 42.9571 49.8473 40.918C49.9442 38.7128 49.9645 38.0514 49.9537 32.4666C49.9435 26.8832 49.9198 26.2218 49.8148 24.0159C49.7185 21.9781 49.3763 20.8708 49.0883 20.1355C48.7068 19.1576 48.252 18.4636 47.5188 17.7324C46.7856 17.0012 46.0882 16.5505 45.1104 16.1724C44.3737 15.8871 43.265 15.5496 41.2273 15.4608C39.0208 15.3639 38.3593 15.3443 32.7746 15.3551C27.1913 15.366 26.5306 15.3883 24.3247 15.4927C22.2863 15.5896 21.1803 15.9318 20.443 16.2198C19.4671 16.6014 18.7718 17.0547 18.0406 17.7887C17.3108 18.5226 16.8588 19.2186 16.4806 20.1971C16.1974 20.9345 15.8565 22.0432 15.7691 24.081C15.6728 26.2875 15.6525 26.9489 15.6634 32.5323C15.6735 38.1171 15.6972 38.7786 15.8009 40.9831C15.8965 43.0222 16.2414 44.1282 16.5281 44.8662C16.9096 45.8414 17.3643 46.5367 18.0969 47.2679C18.8308 47.9964 19.5281 48.4498 20.5054 48.8279Z" fill="white"/>
<circle cx="32.5" cy="32.5" r="30.5" stroke="white" stroke-width="4"/>
</svg>
