<svg width="65" height="65" viewBox="0 0 65 65" fill="none" xmlns="http://www.w3.org/2000/svg">
<g clip-path="url(#clip0_30_376)">
<path fill-rule="evenodd" clip-rule="evenodd" d="M24.0008 18.7026C25.1311 18.6816 26.2598 18.7975 27.3622 19.0477C28.2905 19.2504 29.1717 19.6275 29.9592 20.159C30.6865 20.6875 31.262 21.3981 31.6279 22.2194C32.0484 23.2292 32.2512 24.3164 32.2232 25.41C32.271 26.6107 31.9643 27.799 31.3414 28.8266C30.6862 29.7973 29.7804 30.5724 28.7203 31.0699C30.159 31.4578 31.4121 32.3462 32.2543 33.5755C33.0627 34.8779 33.4691 36.3899 33.4225 37.9222C33.4492 39.1439 33.1966 40.3556 32.6839 41.4649C32.2101 42.4325 31.5163 43.2758 30.6581 43.9273C29.7745 44.5716 28.7802 45.0482 27.7246 45.3336C26.6299 45.6365 25.499 45.7886 24.3632 45.7857H11.8923V18.7026H24.0008ZM23.2812 29.6567C24.1693 29.6933 25.0435 29.4274 25.7609 28.9026C26.1044 28.5967 26.3717 28.2148 26.5413 27.7872C26.7109 27.3596 26.7781 26.8983 26.7376 26.4402C26.7606 25.905 26.654 25.3723 26.427 24.8871C26.2344 24.5009 25.9349 24.178 25.5642 23.957C25.1887 23.7138 24.7668 23.551 24.3252 23.479C23.8461 23.3862 23.3585 23.344 22.8705 23.3531H17.5419V29.6808H23.2812V29.6567ZM23.5918 41.187C24.1289 41.1943 24.6649 41.1364 25.188 41.0145C25.666 40.9089 26.1194 40.7127 26.5236 40.4364C26.9195 40.1603 27.2394 39.7888 27.4537 39.3562C27.7021 38.8046 27.8162 38.202 27.7867 37.5978C27.8406 37.0472 27.7677 36.4916 27.5735 35.9735C27.3794 35.4555 27.0692 34.9887 26.6668 34.6091C25.8139 33.9809 24.7686 33.6697 23.7109 33.729H17.5419V41.187H23.5918Z" fill="#D9D9D9"/>
<path fill-rule="evenodd" clip-rule="evenodd" d="M41.4689 41.0868C41.9123 41.4978 42.4346 41.8144 43.0042 42.0173C43.5737 42.2202 44.1786 42.3052 44.782 42.2671C45.7386 42.2913 46.6766 42.0003 47.4515 41.4389C48.0819 41.0289 48.5593 40.4223 48.8095 39.7133H53.315C52.835 41.7319 51.6627 43.5185 50.0019 44.7623C48.4087 45.8198 46.5259 46.3554 44.6146 46.2947C43.2505 46.3126 41.8967 46.0561 40.6337 45.5406C39.4911 45.0641 38.4664 44.3438 37.6312 43.4302C36.799 42.4728 36.1598 41.3636 35.7485 40.1636C35.2869 38.8223 35.061 37.4113 35.0807 35.9929C35.0723 34.5983 35.3059 33.2128 35.771 31.8981C36.3958 30.0484 37.5906 28.4443 39.1837 27.3158C40.7769 26.1874 42.6866 25.5926 44.6388 25.6169C46.0801 25.5868 47.5053 25.9241 48.7802 26.597C49.9326 27.229 50.9267 28.1139 51.6878 29.1854C52.4663 30.3097 53.0244 31.5716 53.3323 32.9041C53.67 34.3349 53.7904 35.8084 53.6895 37.275H40.2696C40.1608 38.6529 40.5907 40.0194 41.4689 41.0868ZM47.3566 30.7868C46.981 30.4112 46.5294 30.1204 46.032 29.934C45.5346 29.7477 45.003 29.6701 44.4731 29.7066C43.7701 29.6797 43.0722 29.8355 42.4473 30.1587C41.9519 30.4314 41.5146 30.7983 41.16 31.2389C40.8457 31.6519 40.6116 32.1201 40.4697 32.6194C40.3419 33.0357 40.262 33.4653 40.2316 33.8997H48.5438C48.4713 32.7672 48.0588 31.6828 47.36 30.7885L47.3566 30.7868Z" fill="#D9D9D9"/>
<path d="M39.1601 20.5109H49.5757V23.1735H39.1601V20.5109Z" fill="#D9D9D9"/>
</g>
<circle cx="32.5" cy="32.5" r="30.5" stroke="#D9D9D9" stroke-width="4"/>
<defs>
<clipPath id="clip0_30_376">
<rect width="41.8317" height="41.8317" fill="white" transform="translate(11.8923 11.584)"/>
</clipPath>
</defs>
</svg>
