<svg width="70" height="70" viewBox="0 0 70 70" fill="none" xmlns="http://www.w3.org/2000/svg">
<path d="M41.541 53.5772C39.2781 53.5772 37.2896 53.0115 35.5753 51.88C33.8953 50.7143 32.5753 49.0686 31.6153 46.9429C30.6553 44.7829 30.1753 42.2115 30.1753 39.2286C30.1753 36.4858 30.5867 34.0515 31.4096 31.9258C32.2324 29.8 33.4496 28.1372 35.061 26.9372C36.7067 25.7029 38.7296 25.0858 41.1296 25.0858C42.8439 25.0858 44.2839 25.3943 45.4496 26.0115C46.6496 26.6286 47.6439 27.5543 48.4324 28.7886C49.221 30.0229 49.8553 31.5829 50.3353 33.4686H51.621C51.381 32.3029 51.1582 31.2058 50.9524 30.1772C50.7467 29.1143 50.5753 28.1372 50.4382 27.2458C50.3353 26.32 50.2839 25.5143 50.2839 24.8286V15.8286H58.6153V39.5886V52.8572H51.8267L51.7239 44.8343H50.5924C50.2153 46.8915 49.6153 48.5715 48.7924 49.8743C48.0039 51.1429 46.9924 52.0858 45.7581 52.7029C44.5581 53.2858 43.1524 53.5772 41.541 53.5772ZM44.5239 46.8915C45.5867 46.8915 46.4781 46.6686 47.1981 46.2229C47.9524 45.7429 48.5524 45.1429 48.9981 44.4229C49.4439 43.7029 49.7696 42.9315 49.9753 42.1086C50.181 41.2858 50.2839 40.5143 50.2839 39.7943V38.7143C50.2839 38.0629 50.1982 37.4115 50.0267 36.76C49.8553 36.1086 49.5982 35.4743 49.2553 34.8572C48.9467 34.24 48.5524 33.6915 48.0724 33.2115C47.5924 32.7315 47.0267 32.3543 46.3753 32.08C45.7582 31.8058 45.0724 31.6686 44.3182 31.6686C43.1867 31.6686 42.2096 31.9772 41.3867 32.5943C40.5982 33.2115 39.981 34.0858 39.5353 35.2172C39.1239 36.3486 38.9181 37.6858 38.9181 39.2286C38.9181 40.7715 39.141 42.1258 39.5867 43.2915C40.0324 44.4229 40.6839 45.3143 41.541 45.9658C42.3981 46.5829 43.3924 46.8915 44.5239 46.8915Z" fill="#9A7FA2"/>
<path d="M16.4058 52.8569V18.9141H24.84V52.8569H16.4058Z" fill="#9A7FA2"/>
<rect x="2" y="2" width="66" height="66" rx="9" stroke="#9A7FA2" stroke-width="4"/>
</svg>
