<svg width="70" height="70" viewBox="0 0 70 70" fill="none" xmlns="http://www.w3.org/2000/svg">
<path d="M47.5525 53.0628V25.9085H55.8325V53.0628H47.5525ZM51.7182 22.1028C50.1411 22.1028 48.9239 21.7771 48.0668 21.1256C47.2439 20.4399 46.8325 19.4799 46.8325 18.2456C46.8325 16.9428 47.2439 15.9656 48.0668 15.3142C48.9239 14.6285 50.1411 14.2856 51.7182 14.2856C53.3297 14.2856 54.5468 14.6285 55.3697 15.3142C56.2268 15.9656 56.6554 16.9256 56.6554 18.1942C56.6554 19.4628 56.2268 20.4399 55.3697 21.1256C54.5468 21.7771 53.3297 22.1028 51.7182 22.1028Z" fill="#9A7FA2"/>
<path d="M8.57129 53.0627L20.0913 19.1199H32.2284L43.7484 53.0627H34.697L26.5713 25.5999H25.7484L17.6227 53.0627H8.57129ZM15.4113 46.6856V41.1313H38.1427V46.6856H15.4113Z" fill="#9A7FA2"/>
<rect x="2" y="2" width="66" height="66" rx="9" stroke="#9A7FA2" stroke-width="4"/>
</svg>
