<svg width="70" height="70" viewBox="0 0 70 70" fill="none" xmlns="http://www.w3.org/2000/svg">
<path d="M48.5521 53.2344C46.9184 53.2344 45.3927 53.0459 43.9748 52.6687C42.5877 52.3259 41.3702 51.7601 40.3222 50.9716C39.3051 50.183 38.5191 49.1373 37.9642 47.8344C37.4402 46.4973 37.2245 44.8859 37.3169 43.0001L43.8361 42.383C43.8977 43.5144 44.1289 44.4573 44.5296 45.2116C44.9303 45.9316 45.4851 46.463 46.1941 46.8059C46.903 47.1487 47.7661 47.3201 48.7832 47.3201C49.7388 47.3201 50.5556 47.1487 51.2337 46.8059C51.9426 46.4287 52.2971 45.8116 52.2971 44.9544C52.2971 44.5087 52.1738 44.1487 51.9272 43.8744C51.6806 43.5659 51.2183 43.2916 50.5402 43.0516C49.8929 42.7773 48.9374 42.4687 47.6736 42.1259C46.1016 41.6801 44.6837 41.2344 43.42 40.7887C42.1562 40.343 41.0774 39.8116 40.1835 39.1944C39.2896 38.5773 38.6115 37.823 38.1492 36.9316C37.6868 36.0059 37.4557 34.8744 37.4557 33.5373C37.4557 31.6516 37.9026 30.0573 38.7965 28.7544C39.7212 27.4173 40.9849 26.4059 42.5877 25.7201C44.1906 25.0001 46.04 24.6401 48.136 24.6401C50.0162 24.6401 51.7731 24.9659 53.4068 25.6173C55.0404 26.2687 56.3196 27.3316 57.2443 28.8059C58.1998 30.2801 58.5543 32.2344 58.3077 34.6687L51.9272 35.3373C52.0197 34.343 51.8964 33.503 51.5573 32.8173C51.2183 32.0973 50.7251 31.5659 50.0778 31.223C49.4305 30.8459 48.6445 30.6573 47.7198 30.6573C46.6718 30.6573 45.855 30.8801 45.2694 31.3259C44.7146 31.7373 44.4371 32.2687 44.4371 32.9201C44.4371 33.4344 44.6067 33.8801 44.9457 34.2573C45.3156 34.6001 45.8704 34.9087 46.6102 35.183C47.3808 35.423 48.3671 35.6973 49.5692 36.0059C50.6172 36.2459 51.7115 36.5544 52.8519 36.9316C53.9924 37.3087 55.0558 37.823 56.0421 38.4744C57.0285 39.0916 57.8299 39.9144 58.4464 40.943C59.0628 41.9716 59.3711 43.2744 59.3711 44.8516C59.3711 46.5316 58.955 48.0059 58.1227 49.2744C57.2905 50.543 56.073 51.5201 54.4702 52.2059C52.8673 52.8916 50.8946 53.2344 48.5521 53.2344Z" fill="#9A7FA2"/>
<path d="M17.0229 42.8972V36.2115H22.7098C24.59 36.2115 25.9925 35.8001 26.9172 34.9772C27.8419 34.1201 28.3043 32.7144 28.3043 30.7601C28.3043 28.9087 27.8727 27.5372 27.0097 26.6458C26.1775 25.7201 24.8983 25.2572 23.1722 25.2572H17.0229V18.5715H23.5883C25.3452 18.5715 26.9789 18.8115 28.4892 19.2915C29.9996 19.7372 31.3095 20.4572 32.4192 21.4515C33.5596 22.4458 34.4381 23.6972 35.0546 25.2058C35.7019 26.7144 36.0255 28.5315 36.0255 30.6572C36.0255 33.3658 35.4707 35.6287 34.3611 37.4458C33.2822 39.263 31.7102 40.6344 29.6451 41.5601C27.5799 42.4515 25.0524 42.8972 22.0625 42.8972H17.0229ZM11.4285 52.5144V18.5715H18.9185V52.5144H11.4285Z" fill="#9A7FA2"/>
<rect x="2" y="2" width="66" height="66" rx="9" stroke="#9A7FA2" stroke-width="4"/>
</svg>
